<!--?xml version="1.0" standalone="no"?-->
              <svg id="sw-js-blob-svg" viewBox="0 0 100 100" xmlns="http://www.w3.org/2000/svg" version="1.1">
                    <defs> 
                        <linearGradient id="sw-gradient" x1="0" x2="1" y1="1" y2="0">
                            <stop id="stop1" stop-color="rgba(106, 199, 204, 1)" offset="0%"></stop>
                            <stop id="stop2" stop-color="rgba(25, 166, 176, 1)" offset="100%"></stop>
                        </linearGradient>
                    </defs>
                <path fill="url(#sw-gradient)" d="M21.2,-28.3C29,-23.4,38.1,-19.4,41,-12.8C44,-6.1,40.8,3,36.5,10.6C32.3,18.1,27,24,20.7,27.6C14.5,31.3,7.2,32.8,-1,34.2C-9.3,35.6,-18.5,36.9,-25.8,33.6C-33,30.2,-38.2,22.2,-40.8,13.4C-43.4,4.7,-43.5,-4.7,-40.9,-13.5C-38.4,-22.4,-33.3,-30.6,-26.1,-35.7C-18.8,-40.8,-9.4,-42.7,-1.4,-40.8C6.7,-38.9,13.3,-33.2,21.2,-28.3Z" width="100%" height="100%" transform="translate(50 50)" stroke-width="0" style="transition: all 0.3s ease 0s;" stroke="url(#sw-gradient)"></path>
              </svg>