<?xml version="1.0" encoding="UTF-8"?>
<!DOCTYPE svg PUBLIC "-//W3C//DTD SVG 1.1//EN" "http://www.w3.org/Graphics/SVG/1.1/DTD/svg11.dtd">
<svg xmlns="http://www.w3.org/2000/svg" version="1.1" viewBox="0 0 1916 1916" style="shape-rendering:geometricPrecision; text-rendering:geometricPrecision; image-rendering:optimizeQuality; fill-rule:evenodd; clip-rule:evenodd" xmlns:xlink="http://www.w3.org/1999/xlink">
<g><path style="opacity:0.989" fill="#19a4ae" d="M 912.5,-0.5 C 942.5,-0.5 972.5,-0.5 1002.5,-0.5C 1236.81,13.8703 1440.14,99.7036 1612.5,257C 1798.32,435.521 1899.32,654.021 1915.5,912.5C 1915.5,942.5 1915.5,972.5 1915.5,1002.5C 1904.53,1196.66 1842.03,1371.99 1728,1528.5C 1722.97,1535.02 1717.8,1541.36 1712.5,1547.5C 1704.04,1555.46 1695.7,1563.63 1687.5,1572C 1686.55,1572.48 1685.55,1572.65 1684.5,1572.5C 1820.22,1374.63 1876.72,1155.63 1854,915.5C 1823.74,671.453 1717.9,467.287 1536.5,303C 1354.16,144.98 1141.5,64.8131 898.5,62.5C 650.804,66.4245 435.47,150.758 252.5,315.5C 252.351,314.448 252.517,313.448 253,312.5C 260,304.469 266.5,296.135 272.5,287.5C 387.36,169.85 524.027,87.0168 682.5,39C 757.769,16.8447 834.436,3.67803 912.5,-0.5 Z"/></g>
<g><path style="opacity:1" fill="#404042" d="M 1684.5,1572.5 C 1677.4,1581.43 1669.4,1589.6 1660.5,1597C 1478.65,1754.01 1266.82,1833.85 1025,1836.5C 784.43,1833.39 573.597,1753.56 392.5,1597C 216.972,1438.48 111.805,1241.65 77,1006.5C 48.7921,779.31 93.7921,568.31 212,373.5C 224.584,353.435 238.084,334.101 252.5,315.5C 435.47,150.758 650.804,66.4245 898.5,62.5C 1141.5,64.8131 1354.16,144.98 1536.5,303C 1717.9,467.287 1823.74,671.453 1854,915.5C 1876.72,1155.63 1820.22,1374.63 1684.5,1572.5 Z"/></g>
<g><path style="opacity:1" fill="#fdfdfd" d="M 948.5,156.5 C 952.437,156.207 956.27,156.54 960,157.5C 974,185.5 988,213.5 1002,241.5C 1008.26,259.873 1006.26,277.206 996,293.5C 990.667,298.833 985.333,304.167 980,309.5C 977.901,311.974 977.401,314.641 978.5,317.5C 1025.61,295.057 1074.61,289.89 1125.5,302C 1153.48,310.326 1181.14,319.659 1208.5,330C 1244.03,340.481 1280.03,342.314 1316.5,335.5C 1319.04,317.464 1329.37,307.297 1347.5,305C 1373.57,302.207 1389.9,313.541 1396.5,339C 1394.71,347.723 1391.38,355.723 1386.5,363C 1381.05,366.448 1375.88,370.281 1371,374.5C 1370.33,375.833 1370.33,377.167 1371,378.5C 1424.35,531.299 1477.69,683.966 1531,836.5C 1540.33,839.275 1549.83,841.442 1559.5,843C 1562.98,846.685 1563.48,850.851 1561,855.5C 1545.35,877.491 1524.51,891.991 1498.5,899C 1456.04,906.748 1413.2,910.915 1370,911.5C 1319.34,913.034 1269.17,908.867 1219.5,899C 1194.16,894.009 1174.16,881.009 1159.5,860C 1153.91,858.419 1149.41,855.252 1146,850.5C 1145.25,847.211 1146.42,844.711 1149.5,843C 1160.49,839.806 1171.65,837.306 1183,835.5C 1184.33,835.245 1185.33,834.578 1186,833.5C 1237.9,681.37 1290.07,529.37 1342.5,377.5C 1342.12,375.617 1341.12,374.117 1339.5,373C 1335.3,369.97 1330.97,367.137 1326.5,364.5C 1291.15,378.058 1254.81,381.558 1217.5,375C 1179.95,364.237 1141.95,355.237 1103.5,348C 1075.46,345.225 1048.46,349.225 1022.5,360C 1013.87,366.238 1005.7,373.072 998,380.5C 996.379,398.53 990.879,415.197 981.5,430.5C 987.428,433.594 992.261,437.927 996,443.5C 996.867,447.956 996.534,452.289 995,456.5C 992.333,460.5 989,463.833 985,466.5C 981.812,515.113 980.812,563.78 982,612.5C 990.191,621.564 991.691,631.731 986.5,643C 989.653,646.822 992.82,650.655 996,654.5C 1001.03,664.874 1000.36,674.874 994,684.5C 993.664,688.001 993.831,691.501 994.5,695C 994.692,701.473 992.192,706.64 987,710.5C 986.148,730.581 984.648,750.581 982.5,770.5C 983.064,777.628 986.231,783.295 992,787.5C 993.761,790.449 994.928,793.616 995.5,797C 994.088,801.99 991.755,806.49 988.5,810.5C 993.799,818.986 993.799,827.486 988.5,836C 993.832,851.656 993.832,867.323 988.5,883C 993.334,894.494 999.834,904.994 1008,914.5C 1008.33,919.167 1008.67,923.833 1009,928.5C 1009.25,929.624 1009.75,930.624 1010.5,931.5C 1018.9,936.203 1027.56,940.036 1036.5,943C 1062.97,947.699 1088.64,955.032 1113.5,965C 1132.16,976.486 1133.49,989.82 1117.5,1005C 1089.03,1018.04 1059.03,1025.37 1027.5,1027C 976.204,1028.55 924.871,1028.22 873.5,1026C 847.285,1023.5 822.285,1016.83 798.5,1006C 793.565,1001.07 789.399,995.568 786,989.5C 784.857,984.163 785.524,979.163 788,974.5C 791.946,970.555 796.446,967.389 801.5,965C 825.08,956.769 849.08,949.769 873.5,944C 883.844,939.851 893.511,934.684 902.5,928.5C 899.743,924.191 898.909,919.525 900,914.5C 903.955,908.877 908.288,903.543 913,898.5C 916.69,893.119 919.857,887.452 922.5,881.5C 921.326,877.158 920.16,872.824 919,868.5C 918.557,857.815 918.557,847.148 919,836.5C 912.908,828.07 913.075,819.736 919.5,811.5C 911.367,802.25 911.533,793.25 920,784.5C 923.165,758.937 924.165,733.271 923,707.5C 918.225,702.11 916.225,695.776 917,688.5C 911.77,679.542 910.103,669.876 912,659.5C 914.13,654.076 916.63,648.909 919.5,644C 914.01,634.149 914.51,624.649 921,615.5C 922.833,565.844 923,516.178 921.5,466.5C 907.545,463 903.712,454.667 910,441.5C 914.34,437.991 918.507,434.324 922.5,430.5C 913.023,415.264 908.523,398.598 909,380.5C 888.489,359.167 863.322,348.001 833.5,347C 811.466,344.906 789.466,345.239 767.5,348C 744.704,354.031 722.038,360.364 699.5,367C 678.989,372.435 658.323,377.102 637.5,381C 611.832,382.712 587.165,378.879 563.5,369.5C 559.413,371.685 555.079,373.185 550.5,374C 549.978,374.561 549.645,375.228 549.5,376C 602.057,529.921 655.557,683.421 710,836.5C 719.554,841.744 729.721,843.91 740.5,843C 742.584,844.501 743.917,846.501 744.5,849C 730.366,873.804 709.699,890.471 682.5,899C 599.64,914.785 516.307,917.451 432.5,907C 404.315,904.558 378.315,895.892 354.5,881C 347.13,868.129 337.463,857.296 325.5,848.5C 326.982,846.517 328.649,844.684 330.5,843C 340.767,840.678 351.101,838.678 361.5,837C 363.587,836.208 365.421,835.041 367,833.5C 418.028,681.744 469.528,530.078 521.5,378.5C 513.534,372.7 506.701,365.7 501,357.5C 498.635,352.551 496.802,347.384 495.5,342C 506.301,307.441 528.301,297.774 561.5,313C 569.967,320.791 576.3,329.958 580.5,340.5C 598.165,342.409 615.832,342.575 633.5,341C 678.869,327.641 724.202,314.307 769.5,301C 800.69,294.418 832.023,293.752 863.5,299C 886.229,305.859 908.896,313.026 931.5,320.5C 932.415,319.672 933.081,318.672 933.5,317.5C 932.811,315.556 932.311,313.556 932,311.5C 920.945,300.716 912.945,288.049 908,273.5C 906.526,264.546 906.193,255.546 907,246.5C 922.213,217.077 936.047,187.077 948.5,156.5 Z"/></g>
<g><path style="opacity:1" fill="#6ac5ca" d="M 272.5,287.5 C 266.5,296.135 260,304.469 253,312.5C 252.517,313.448 252.351,314.448 252.5,315.5C 238.084,334.101 224.584,353.435 212,373.5C 93.7921,568.31 48.7921,779.31 77,1006.5C 111.805,1241.65 216.972,1438.48 392.5,1597C 573.597,1753.56 784.43,1833.39 1025,1836.5C 1266.82,1833.85 1478.65,1754.01 1660.5,1597C 1669.4,1589.6 1677.4,1581.43 1684.5,1572.5C 1685.55,1572.65 1686.55,1572.48 1687.5,1572C 1695.7,1563.63 1704.04,1555.46 1712.5,1547.5C 1626.59,1657.9 1521.59,1744.9 1397.5,1808.5C 1389.18,1811.99 1381.18,1815.99 1373.5,1820.5C 1285.83,1863.5 1193.49,1891.83 1096.5,1905.5C 1091.27,1905.44 1086.27,1906.11 1081.5,1907.5C 1055.27,1911.21 1028.93,1913.88 1002.5,1915.5C 972.5,1915.5 942.5,1915.5 912.5,1915.5C 795.595,1909.36 683.261,1883.19 575.5,1837C 563.934,1831.77 552.6,1826.27 541.5,1820.5C 533.818,1815.99 525.818,1811.99 517.5,1808.5C 438.955,1769.07 367.955,1719.07 304.5,1658.5C 299.443,1652.44 293.776,1647.11 287.5,1642.5C 279.833,1635.5 272.5,1628.17 265.5,1620.5C 263.234,1616.56 260.234,1613.23 256.5,1610.5C 195.926,1547.04 145.926,1476.04 106.5,1397.5C 103.008,1389.18 99.0078,1381.18 94.5,1373.5C 51.5017,1285.83 23.1684,1193.49 9.5,1096.5C 9.55565,1091.27 8.88899,1086.27 7.5,1081.5C 6.19371,1076.38 5.52705,1071.05 5.5,1065.5C 5.47933,1058.63 4.81266,1051.96 3.5,1045.5C 1.86093,1031.19 0.5276,1016.86 -0.5,1002.5C -0.5,972.5 -0.5,942.5 -0.5,912.5C 5.64154,795.595 31.8082,683.261 78,575.5C 83.2317,563.934 88.7317,552.6 94.5,541.5C 99.0078,533.818 103.008,525.818 106.5,517.5C 149.833,432.168 205.166,355.501 272.5,287.5 Z"/></g>
<g><path style="opacity:1" fill="#c7c7c8" d="M 547.5,435.5 C 546.501,498.331 546.168,561.331 546.5,624.5C 546.831,649.672 546.498,674.672 545.5,699.5C 545.167,610.831 545.5,522.164 546.5,433.5C 547.298,433.957 547.631,434.624 547.5,435.5 Z"/></g>
<g><path style="opacity:1" fill="#404042" d="M 1341.5,438.5 C 1342.17,448.833 1342.83,459.167 1343.5,469.5C 1345.29,588.491 1345.95,707.491 1345.5,826.5C 1304.76,826.535 1264.09,828.202 1223.5,831.5C 1219.78,831.384 1216.11,830.884 1212.5,830C 1211.57,829.612 1210.91,828.945 1210.5,828C 1254.89,698.186 1298.56,568.352 1341.5,438.5 Z"/></g>
<g><path style="opacity:1" fill="#5d5d5f" d="M 1343.5,469.5 C 1342.83,459.167 1342.17,448.833 1341.5,438.5C 1341.46,437.244 1341.96,436.244 1343,435.5C 1343.5,446.828 1343.67,458.162 1343.5,469.5 Z"/></g>
<g><path style="opacity:1" fill="#414143" d="M 1367.5,435.5 C 1369.44,438.197 1370.94,441.197 1372,444.5C 1418.22,573.683 1463.39,703.349 1507.5,833.5C 1474.99,831.446 1442.33,829.613 1409.5,828C 1394.84,827.5 1380.17,827.333 1365.5,827.5C 1365.76,696.83 1366.43,566.164 1367.5,435.5 Z"/></g>
<g><path style="opacity:1" fill="#404042" d="M 548.5,439.5 C 595.551,570.982 642.217,702.649 688.5,834.5C 673.594,834.398 658.594,833.565 643.5,832C 610.507,830.197 577.507,828.697 544.5,827.5C 544.623,784.831 544.956,742.165 545.5,699.5C 546.498,674.672 546.831,649.672 546.5,624.5C 547.167,562.833 547.833,501.167 548.5,439.5 Z"/></g>
<g><path style="opacity:1" fill="#515153" d="M 547.5,435.5 C 547.833,436.833 548.167,438.167 548.5,439.5C 547.833,501.167 547.167,562.833 546.5,624.5C 546.168,561.331 546.501,498.331 547.5,435.5 Z"/></g>
<g><path style="opacity:1" fill="#404042" d="M 524.5,804.5 C 523.508,811.648 523.175,818.981 523.5,826.5C 515.648,826.175 507.982,826.508 500.5,827.5C 463.728,828.646 427.061,830.979 390.5,834.5C 390.167,833.833 389.833,833.167 389.5,832.5C 433.031,701.072 476.865,569.739 521,438.5C 522.386,483.141 523.386,527.807 524,572.5C 524.5,649.833 524.667,727.166 524.5,804.5 Z"/></g>
<g><path style="opacity:0.616" fill="#5b9599" d="M 106.5,517.5 C 103.008,525.818 99.0078,533.818 94.5,541.5C 97.4595,532.914 101.459,524.914 106.5,517.5 Z"/></g>
<g><path style="opacity:1" fill="#787879" d="M 524.5,804.5 C 524.5,812.167 524.5,819.833 524.5,827.5C 516.5,827.5 508.5,827.5 500.5,827.5C 507.982,826.508 515.648,826.175 523.5,826.5C 523.175,818.981 523.508,811.648 524.5,804.5 Z"/></g>
<g><path style="opacity:1" fill="#f2f2f2" d="M 712.5,1101.5 C 713.404,1100.79 713.737,1099.79 713.5,1098.5C 681.996,1098.17 650.662,1098.5 619.5,1099.5C 606.262,1142.72 593.095,1186.05 580,1229.5C 571.826,1264.86 563.659,1300.19 555.5,1335.5C 542.833,1335.5 530.167,1335.5 517.5,1335.5C 524.838,1302.48 532.338,1269.48 540,1236.5C 553.946,1191.5 567.78,1146.5 581.5,1101.5C 582.404,1100.79 582.737,1099.79 582.5,1098.5C 544.833,1098.5 507.167,1098.5 469.5,1098.5C 469.5,1071.17 469.5,1043.83 469.5,1016.5C 482.167,1016.5 494.833,1016.5 507.5,1016.5C 507.5,1034.83 507.5,1053.17 507.5,1071.5C 538.5,1071.5 569.5,1071.5 600.5,1071.5C 600.5,1053.17 600.5,1034.83 600.5,1016.5C 613.167,1016.5 625.833,1016.5 638.5,1016.5C 638.5,1034.83 638.5,1053.17 638.5,1071.5C 697.874,1071.87 757.208,1071.04 816.5,1069C 835.804,1069.83 853.471,1075.5 869.5,1086C 882.001,1098.47 888.501,1113.64 889,1131.5C 889.5,1190.83 889.667,1250.17 889.5,1309.5C 898.167,1309.5 906.833,1309.5 915.5,1309.5C 915.5,1318.17 915.5,1326.83 915.5,1335.5C 858.167,1335.5 800.833,1335.5 743.5,1335.5C 743.5,1326.83 743.5,1318.17 743.5,1309.5C 779.5,1309.5 815.5,1309.5 851.5,1309.5C 851.667,1251.5 851.5,1193.5 851,1135.5C 850.251,1123.85 846.084,1113.68 838.5,1105C 833.892,1101.86 828.892,1099.53 823.5,1098C 799.187,1094.83 774.854,1094.67 750.5,1097.5C 737.632,1141.6 724.465,1185.6 711,1229.5C 702.826,1264.86 694.659,1300.19 686.5,1335.5C 673.833,1335.5 661.167,1335.5 648.5,1335.5C 655.838,1302.48 663.338,1269.48 671,1236.5C 684.946,1191.5 698.78,1146.5 712.5,1101.5 Z"/></g>
<g><path style="opacity:1" fill="#f2f2f2" d="M 1338.5,1101.5 C 1339.4,1100.79 1339.74,1099.79 1339.5,1098.5C 1301.83,1098.5 1264.17,1098.5 1226.5,1098.5C 1226.5,1071.17 1226.5,1043.83 1226.5,1016.5C 1239.17,1016.5 1251.83,1016.5 1264.5,1016.5C 1264.5,1034.83 1264.5,1053.17 1264.5,1071.5C 1301.83,1071.33 1339.17,1071.5 1376.5,1072C 1386.52,1072.17 1396.52,1072.67 1406.5,1073.5C 1431.67,1121.83 1456.83,1170.17 1482,1218.5C 1495.33,1211.2 1502.66,1199.87 1504,1184.5C 1505.43,1147.19 1505.93,1109.86 1505.5,1072.5C 1518.17,1072.5 1530.83,1072.5 1543.5,1072.5C 1543.67,1106.17 1543.5,1139.83 1543,1173.5C 1542.39,1190.71 1537.72,1206.71 1529,1221.5C 1524.13,1226.7 1518.97,1231.53 1513.5,1236C 1507.77,1239.2 1502.1,1242.36 1496.5,1245.5C 1511.91,1275.32 1527.58,1304.99 1543.5,1334.5C 1529.17,1335.83 1514.83,1335.83 1500.5,1334.5C 1476.09,1286.01 1451.42,1237.68 1426.5,1189.5C 1414.62,1196.9 1407.46,1207.56 1405,1221.5C 1403.54,1259.47 1403.04,1297.47 1403.5,1335.5C 1390.83,1335.5 1378.17,1335.5 1365.5,1335.5C 1365.33,1299.5 1365.5,1263.5 1366,1227.5C 1368.27,1196.42 1383.77,1175.09 1412.5,1163.5C 1400.67,1141.83 1388.83,1120.17 1377,1098.5C 1363.46,1142.13 1350.12,1185.79 1337,1229.5C 1328.83,1264.86 1320.66,1300.19 1312.5,1335.5C 1299.83,1335.5 1287.17,1335.5 1274.5,1335.5C 1281.84,1302.48 1289.34,1269.48 1297,1236.5C 1310.95,1191.5 1324.78,1146.5 1338.5,1101.5 Z"/></g>
<g><path style="opacity:0.475" fill="#5b979b" d="M 3.5,1045.5 C 4.81266,1051.96 5.47933,1058.63 5.5,1065.5C 4.06403,1059.05 3.39736,1052.39 3.5,1045.5 Z"/></g>
<g><path style="opacity:1" fill="#f2f2f2" d="M 1017.5,1097.5 C 1017.5,1088.83 1017.5,1080.17 1017.5,1071.5C 1018.79,1071.74 1019.79,1071.4 1020.5,1070.5C 1050.56,1067.46 1080.56,1067.96 1110.5,1072C 1138.7,1078.2 1154.2,1095.7 1157,1124.5C 1157.5,1194.83 1157.67,1265.17 1157.5,1335.5C 1144.83,1335.5 1132.17,1335.5 1119.5,1335.5C 1119.67,1267.17 1119.5,1198.83 1119,1130.5C 1118.27,1113.45 1109.77,1102.61 1093.5,1098C 1068.2,1094.95 1042.86,1094.79 1017.5,1097.5 Z"/></g>
<g><path style="opacity:1" fill="#a8a8a8" d="M 1020.5,1070.5 C 1019.79,1071.4 1018.79,1071.74 1017.5,1071.5C 1017.5,1080.17 1017.5,1088.83 1017.5,1097.5C 1016.51,1088.68 1016.17,1079.68 1016.5,1070.5C 1017.83,1070.5 1019.17,1070.5 1020.5,1070.5 Z"/></g>
<g><path style="opacity:1" fill="#c4c4c5" d="M 1002.5,1074.5 C 989.735,1073.18 977.069,1073.18 964.5,1074.5C 963.957,1074.44 963.624,1074.11 963.5,1073.5C 970,1073.17 976.5,1072.83 983,1072.5C 989.869,1072.5 996.369,1073.17 1002.5,1074.5 Z"/></g>
<g><path style="opacity:1" fill="#f3f3f3" d="M 426.5,1072.5 C 439.167,1072.5 451.833,1072.5 464.5,1072.5C 464.667,1117.83 464.5,1163.17 464,1208.5C 454.833,1219 445.667,1229.5 436.5,1240C 433.183,1240.5 429.85,1240.67 426.5,1240.5C 426.5,1184.5 426.5,1128.5 426.5,1072.5 Z"/></g>
<g><path style="opacity:1" fill="#f0f0f0" d="M 1002.5,1074.5 C 1009.55,1096.59 1013.72,1119.26 1015,1142.5C 1015.5,1240.17 1015.67,1337.83 1015.5,1435.5C 1002.5,1435.5 989.5,1435.5 976.5,1435.5C 976.667,1336.17 976.5,1236.83 976,1137.5C 974.226,1116.08 970.392,1095.08 964.5,1074.5C 977.069,1073.18 989.735,1073.18 1002.5,1074.5 Z"/></g>
<g><path style="opacity:1" fill="#f3f3f3" d="M 1183.5,1072.5 C 1196.17,1072.5 1208.83,1072.5 1221.5,1072.5C 1221.67,1117.83 1221.5,1163.17 1221,1208.5C 1211.83,1219 1202.67,1229.5 1193.5,1240C 1190.18,1240.5 1186.85,1240.67 1183.5,1240.5C 1183.5,1184.5 1183.5,1128.5 1183.5,1072.5 Z"/></g>
<g><path style="opacity:0.016" fill="#5a9397" d="M 7.5,1081.5 C 8.88899,1086.27 9.55565,1091.27 9.5,1096.5C 8.11101,1091.73 7.44435,1086.73 7.5,1081.5 Z"/></g>
<g><path style="opacity:1" fill="#bdbdbe" d="M 469.5,1098.5 C 507.167,1098.5 544.833,1098.5 582.5,1098.5C 582.737,1099.79 582.404,1100.79 581.5,1101.5C 544.345,1099.84 507.011,1098.84 469.5,1098.5 Z"/></g>
<g><path style="opacity:1" fill="#bdbdbe" d="M 619.5,1099.5 C 650.662,1098.5 681.996,1098.17 713.5,1098.5C 713.737,1099.79 713.404,1100.79 712.5,1101.5C 681.851,1099.51 650.851,1098.84 619.5,1099.5 Z"/></g>
<g><path style="opacity:1" fill="#bdbdbe" d="M 1226.5,1098.5 C 1264.17,1098.5 1301.83,1098.5 1339.5,1098.5C 1339.74,1099.79 1339.4,1100.79 1338.5,1101.5C 1301.34,1099.84 1264.01,1098.84 1226.5,1098.5 Z"/></g>
<g><path style="opacity:1" fill="#f2f2f2" d="M 513.5,1370.5 C 526.5,1370.5 539.5,1370.5 552.5,1370.5C 552.167,1459.67 552.501,1548.67 553.5,1637.5C 585.336,1638.83 617.336,1638.83 649.5,1637.5C 649.376,1636.89 649.043,1636.56 648.5,1636.5C 633.216,1585.22 651.216,1552.39 702.5,1538C 708.464,1536.78 714.464,1535.78 720.5,1535C 735.191,1534.5 749.857,1533.66 764.5,1532.5C 765.054,1518.74 764.221,1505.07 762,1491.5C 758.271,1477.77 749.438,1469.6 735.5,1467C 714.464,1465.38 694.631,1469.55 676,1479.5C 671.458,1472.25 667.292,1464.75 663.5,1457C 663.645,1456.23 663.978,1455.56 664.5,1455C 693.742,1440.68 724.408,1436.35 756.5,1442C 778.055,1447.22 792.221,1460.39 799,1481.5C 800.846,1488.06 802.18,1494.73 803,1501.5C 803.5,1556.83 803.667,1612.17 803.5,1667.5C 793.5,1667.5 783.5,1667.5 773.5,1667.5C 771.993,1656.79 770.159,1646.12 768,1635.5C 748.923,1665.44 721.756,1676.94 686.5,1670C 674.167,1666.32 664.001,1659.49 656,1649.5C 655.501,1655.49 655.334,1661.49 655.5,1667.5C 608.167,1667.5 560.833,1667.5 513.5,1667.5C 513.5,1568.5 513.5,1469.5 513.5,1370.5 Z"/></g>
<g><path style="opacity:1" fill="#c7c7c7" d="M 513.5,1370.5 C 526.656,1369.5 539.99,1369.17 553.5,1369.5C 553.5,1458.83 553.5,1548.17 553.5,1637.5C 552.501,1548.67 552.167,1459.67 552.5,1370.5C 539.5,1370.5 526.5,1370.5 513.5,1370.5 Z"/></g>
<g><path style="opacity:0.639" fill="#5b969a" d="M 94.5,1373.5 C 99.0078,1381.18 103.008,1389.18 106.5,1397.5C 101.459,1390.09 97.4595,1382.09 94.5,1373.5 Z"/></g>
<g><path style="opacity:1" fill="#f2f2f2" d="M 1403.5,1528.5 C 1403.5,1539.17 1403.5,1549.83 1403.5,1560.5C 1359.83,1560.5 1316.17,1560.5 1272.5,1560.5C 1272.19,1564.04 1272.52,1567.38 1273.5,1570.5C 1276.27,1632.38 1307.61,1655.55 1367.5,1640C 1376.41,1637.46 1384.91,1633.96 1393,1629.5C 1393.83,1639.18 1393.67,1648.85 1392.5,1658.5C 1365.33,1670.7 1337,1674.53 1307.5,1670C 1271.07,1661.57 1248.57,1639.07 1240,1602.5C 1231.92,1566.9 1232.92,1531.57 1243,1496.5C 1259.05,1453.88 1289.88,1435.38 1335.5,1441C 1366.07,1446.56 1386.57,1464.06 1397,1493.5C 1401.03,1504.83 1403.2,1516.5 1403.5,1528.5 Z"/></g>
<g><path style="opacity:1" fill="#f3f3f3" d="M 1419.5,1667.5 C 1419.5,1593.17 1419.5,1518.83 1419.5,1444.5C 1429.5,1444.5 1439.5,1444.5 1449.5,1444.5C 1451.35,1457.48 1453.01,1470.48 1454.5,1483.5C 1455.5,1483.5 1456.5,1483.5 1457.5,1483.5C 1471.12,1447.52 1496.78,1433.86 1534.5,1442.5C 1532.82,1453.42 1530.82,1464.25 1528.5,1475C 1503.11,1467.35 1483.61,1474.85 1470,1497.5C 1463.59,1509.39 1459.59,1522.06 1458,1535.5C 1457.5,1579.5 1457.33,1623.5 1457.5,1667.5C 1444.83,1667.5 1432.17,1667.5 1419.5,1667.5 Z"/></g>
<g><path style="opacity:1" fill="#b1b1b2" d="M 840.5,1444.5 C 827.656,1444.17 814.989,1444.5 802.5,1445.5C 801.957,1445.44 801.624,1445.11 801.5,1444.5C 814.661,1443.17 827.661,1443.17 840.5,1444.5 Z"/></g>
<g><path style="opacity:1" fill="#b2b2b3" d="M 928.5,1444.5 C 935.659,1443.83 942.992,1443.5 950.5,1443.5C 958.198,1443.5 965.532,1444.17 972.5,1445.5C 957.912,1444.52 943.245,1444.18 928.5,1444.5 Z"/></g>
<g><path style="opacity:1" fill="#b1b1b2" d="M 1209.5,1444.5 C 1222.67,1443.17 1236.01,1443.17 1249.5,1444.5C 1249.38,1445.11 1249.04,1445.44 1248.5,1445.5C 1235.68,1444.5 1222.68,1444.17 1209.5,1444.5 Z"/></g>
<g><path style="opacity:1" fill="#f2f2f2" d="M 1209.5,1444.5 C 1222.68,1444.17 1235.68,1444.5 1248.5,1445.5C 1219.62,1538.36 1190.12,1631.03 1160,1723.5C 1142.46,1761.52 1113.29,1775.18 1072.5,1764.5C 1071.5,1755.19 1071.17,1745.86 1071.5,1736.5C 1097.98,1745.3 1115.81,1736.63 1125,1710.5C 1130.24,1695.46 1135.07,1680.29 1139.5,1665C 1121.38,1608.65 1102.88,1552.49 1084,1496.5C 1068.56,1553.19 1053.06,1609.85 1037.5,1666.5C 1022.51,1667.5 1007.51,1667.83 992.5,1667.5C 981.655,1620.12 970.488,1572.78 959,1525.5C 956.119,1510.83 953.286,1496.16 950.5,1481.5C 947.351,1495.41 944.518,1509.41 942,1523.5C 930.152,1571.23 918.152,1618.89 906,1666.5C 891.23,1667.82 876.397,1667.82 861.5,1666.5C 841.536,1592.91 821.87,1519.24 802.5,1445.5C 814.989,1444.5 827.656,1444.17 840.5,1444.5C 857.34,1505.2 872.007,1566.53 884.5,1628.5C 897.591,1566.8 912.258,1505.47 928.5,1444.5C 943.245,1444.18 957.912,1444.52 972.5,1445.5C 982.839,1487.19 993.339,1528.86 1004,1570.5C 1008.16,1589.78 1011.99,1609.11 1015.5,1628.5C 1029.01,1566.62 1044.01,1505.12 1060.5,1444C 1076.18,1443.17 1091.84,1443.33 1107.5,1444.5C 1126.33,1503.65 1143.33,1563.32 1158.5,1623.5C 1174.43,1563.42 1191.43,1503.76 1209.5,1444.5 Z"/></g>
<g><path style="opacity:1" fill="#a0a0a1" d="M 1449.5,1444.5 C 1439.5,1444.5 1429.5,1444.5 1419.5,1444.5C 1419.5,1518.83 1419.5,1593.17 1419.5,1667.5C 1418.5,1593 1418.17,1518.34 1418.5,1443.5C 1429.01,1443.17 1439.35,1443.51 1449.5,1444.5 Z"/></g>
<g><path style="opacity:1" fill="#414143" d="M 1312.5,1466.5 C 1339.01,1464.18 1355.85,1475.84 1363,1501.5C 1366.46,1512.92 1367.96,1524.59 1367.5,1536.5C 1336.17,1536.5 1304.83,1536.5 1273.5,1536.5C 1273.79,1518.52 1277.96,1501.52 1286,1485.5C 1289.47,1481.03 1293.3,1476.87 1297.5,1473C 1302.38,1470.22 1307.38,1468.05 1312.5,1466.5 Z"/></g>
<g><path style="opacity:1" fill="#404042" d="M 751.5,1556.5 C 756.167,1556.5 760.833,1556.5 765.5,1556.5C 765.755,1570.2 765.255,1583.86 764,1597.5C 761.992,1615.03 754.158,1629.19 740.5,1640C 728.669,1645.64 716.336,1646.97 703.5,1644C 691.332,1638.48 684.499,1628.98 683,1615.5C 679.616,1581.21 695.116,1562.04 729.5,1558C 737.011,1557.83 744.345,1557.33 751.5,1556.5 Z"/></g>
<g><path style="opacity:1" fill="#c6c6c6" d="M 1403.5,1528.5 C 1404.49,1539.32 1404.83,1550.32 1404.5,1561.5C 1360.83,1561.5 1317.17,1561.5 1273.5,1561.5C 1273.5,1564.5 1273.5,1567.5 1273.5,1570.5C 1272.52,1567.38 1272.19,1564.04 1272.5,1560.5C 1316.17,1560.5 1359.83,1560.5 1403.5,1560.5C 1403.5,1549.83 1403.5,1539.17 1403.5,1528.5 Z"/></g>
<g><path style="opacity:0.071" fill="#5b9598" d="M 256.5,1610.5 C 260.234,1613.23 263.234,1616.56 265.5,1620.5C 261.766,1617.77 258.766,1614.44 256.5,1610.5 Z"/></g>
<g><path style="opacity:1" fill="#b3b3b4" d="M 648.5,1636.5 C 649.043,1636.56 649.376,1636.89 649.5,1637.5C 617.336,1638.83 585.336,1638.83 553.5,1637.5C 585.338,1637.83 617.004,1637.5 648.5,1636.5 Z"/></g>
<g><path style="opacity:0.984" fill="#5d9ca0" d="M 287.5,1642.5 C 293.776,1647.11 299.443,1652.44 304.5,1658.5C 298.224,1653.89 292.557,1648.56 287.5,1642.5 Z"/></g>
<g><path style="opacity:0.635" fill="#5b9599" d="M 1397.5,1808.5 C 1390.09,1813.54 1382.09,1817.54 1373.5,1820.5C 1381.18,1815.99 1389.18,1811.99 1397.5,1808.5 Z"/></g>
<g><path style="opacity:0.639" fill="#5b9599" d="M 517.5,1808.5 C 525.818,1811.99 533.818,1815.99 541.5,1820.5C 532.914,1817.54 524.914,1813.54 517.5,1808.5 Z"/></g>
<g><path style="opacity:0.016" fill="#5a9195" d="M 1096.5,1905.5 C 1091.73,1906.89 1086.73,1907.56 1081.5,1907.5C 1086.27,1906.11 1091.27,1905.44 1096.5,1905.5 Z"/></g>
</svg>
