<?xml version="1.0" standalone="no"?>
<!DOCTYPE svg PUBLIC "-//W3C//DTD SVG 20010904//EN"
 "http://www.w3.org/TR/2001/REC-SVG-20010904/DTD/svg10.dtd">
<svg version="1.0" xmlns="http://www.w3.org/2000/svg"
 width="897.000000pt" height="1392.000000pt" viewBox="0 0 897.000000 1392.000000"
 preserveAspectRatio="xMidYMid meet">

<g transform="translate(0.000000,1392.000000) scale(0.100000,-0.100000)"
fill="#000000" stroke="none">
<path d="M0 6960 l0 -6960 4482 0 c2465 0 4479 2 4477 3 -795 661 -1450 1302
-2073 2028 -1181 1376 -2067 2850 -2599 4325 -146 404 -280 884 -361 1294 -97
488 -136 868 -136 1320 0 578 62 988 235 1555 237 774 395 1563 494 2460 25
222 58 609 66 770 3 66 8 130 11 143 l4 22 -2300 0 -2300 0 0 -6960z"/>
</g>
</svg>
