<?xml version="1.0" encoding="UTF-8"?>
<!DOCTYPE svg PUBLIC "-//W3C//DTD SVG 1.1//EN" "http://www.w3.org/Graphics/SVG/1.1/DTD/svg11.dtd">
<svg xmlns="http://www.w3.org/2000/svg" version="1.1" viewBox="0 0 962 1392" style="shape-rendering:geometricPrecision; text-rendering:geometricPrecision; image-rendering:optimizeQuality; fill-rule:evenodd; clip-rule:evenodd" xmlns:xlink="http://www.w3.org/1999/xlink">
<defs> 
<linearGradient id="sw-gradient" x1="0" x2="1" y1="0" y2="0">
<stop id="stop1" stop-color="#404042" offset="0%"></stop>
<stop id="stop2" stop-color="#131313" offset="100%"></stop>
</linearGradient>
</defs>
<g><path style="opacity:0.999" fill="url(#sw-gradient)" d="M -0.5,-0.5 C 152.5,-0.5 305.5,-0.5 458.5,-0.5C 453.948,96.8619 440.115,192.862 417,287.5C 407.801,318.764 398.801,350.097 390,381.5C 386.192,398.684 383.358,416.017 381.5,433.5C 380.117,441.294 379.783,448.961 380.5,456.5C 376.299,533.523 384.799,609.19 406,683.5C 436.766,789.682 481.099,889.682 539,983.5C 635.228,1138.94 754.394,1274.94 896.5,1391.5C 597.5,1391.5 298.5,1391.5 -0.5,1391.5C -0.5,927.5 -0.5,463.5 -0.5,-0.5 Z"/></g>
<g><path style="opacity:1" fill="#19a5af" d="M 458.5,-0.5 C 523.5,-0.5 588.5,-0.5 653.5,-0.5C 529.929,123.259 439.262,267.926 381.5,433.5C 383.358,416.017 386.192,398.684 390,381.5C 398.801,350.097 407.801,318.764 417,287.5C 440.115,192.862 453.948,96.8619 458.5,-0.5 Z"/></g>
<g><path style="opacity:0.988" fill="#69c6cb" d="M 653.5,-0.5 C 754.167,-0.5 854.833,-0.5 955.5,-0.5C 957.091,1.63265 959.091,3.29931 961.5,4.5C 961.5,4.83333 961.5,5.16667 961.5,5.5C 747.765,56.0401 576.265,169.373 447,345.5C 421.792,380.568 399.625,417.568 380.5,456.5C 379.783,448.961 380.117,441.294 381.5,433.5C 439.262,267.926 529.929,123.259 653.5,-0.5 Z"/></g>
</svg>
