<?xml version="1.0" encoding="UTF-8"?>
<!DOCTYPE svg PUBLIC "-//W3C//DTD SVG 1.1//EN" "http://www.w3.org/Graphics/SVG/1.1/DTD/svg11.dtd">
<svg xmlns="http://www.w3.org/2000/svg" version="1.1" viewBox="0 0 731 538" style="shape-rendering:geometricPrecision; text-rendering:geometricPrecision; image-rendering:optimizeQuality; fill-rule:evenodd; clip-rule:evenodd" xmlns:xlink="http://www.w3.org/1999/xlink">
<g><path style="opacity:0.937" fill="#000000" d="M 367.5,-0.5 C 368.833,-0.5 370.167,-0.5 371.5,-0.5C 377.304,11.109 383.138,22.7757 389,34.5C 393.195,45.7107 390.529,55.0441 381,62.5C 379.711,64.0548 379.044,65.7215 379,67.5C 397.95,58.135 417.783,55.635 438.5,60C 451.03,63.399 463.364,67.399 475.5,72C 490.608,76.9294 505.941,77.7627 521.5,74.5C 522.569,67.5962 526.569,63.4296 533.5,62C 544.705,60.4318 551.705,65.0985 554.5,76C 553.928,79.384 552.761,82.5507 551,85.5C 548.381,87.2208 545.881,89.0541 543.5,91C 565.803,155.575 588.303,220.075 611,284.5C 614.716,285.704 618.55,286.538 622.5,287C 624.211,288.133 624.711,289.633 624,291.5C 616.838,301.844 607.005,308.344 594.5,311C 575.665,314.422 556.665,315.922 537.5,315.5C 517.933,316.039 498.599,314.206 479.5,310C 469.339,307.828 461.339,302.495 455.5,294C 452.924,293.218 450.924,291.718 449.5,289.5C 449.977,288.522 450.643,287.689 451.5,287C 456.448,285.744 461.448,284.744 466.5,284C 488.593,219.887 510.593,155.721 532.5,91.5C 530.381,89.6002 528.047,87.9336 525.5,86.5C 510.921,92.1973 495.921,93.6973 480.5,91C 465.597,86.921 450.597,83.2543 435.5,80C 422.31,78.1195 409.643,79.7861 397.5,85C 394.02,87.6458 390.686,90.4791 387.5,93.5C 386.969,101.092 384.636,108.092 380.5,114.5C 388.976,118.981 389.476,123.981 382,129.5C 380.979,149.827 380.645,170.161 381,190.5C 384.833,194.484 385.333,198.818 382.5,203.5C 388.918,208.589 389.918,214.589 385.5,221.5C 387.146,225.43 386.313,228.764 383,231.5C 382.69,240.013 382.19,248.513 381.5,257C 381.833,258.5 382.167,260 382.5,261.5C 387.388,265.072 387.721,269.072 383.5,273.5C 386.032,277.106 386.032,280.606 383.5,284C 386.056,290.61 386.056,297.276 383.5,304C 385.879,308.727 388.712,313.227 392,317.5C 392.015,319.791 392.182,321.958 392.5,324C 397.261,326.587 402.261,328.587 407.5,330C 417.104,331.734 426.437,334.401 435.5,338C 443.823,342.913 444.49,348.58 437.5,355C 425.752,360.284 413.419,363.284 400.5,364C 380.833,364.667 361.167,364.667 341.5,364C 329.022,363.372 317.022,360.705 305.5,356C 295.325,347.49 296.658,341.156 309.5,337C 317.705,334.199 326.038,331.866 334.5,330C 339.446,328.194 344.112,325.861 348.5,323C 346.064,320.681 345.897,318.181 348,315.5C 351.416,311.916 354.249,307.916 356.5,303.5C 354.304,297.448 353.971,291.281 355.5,285C 352.036,281.18 352.036,277.513 355.5,274C 351.539,270.082 351.539,266.249 355.5,262.5C 356.636,251.846 357.136,241.18 357,230.5C 354.464,228.388 353.631,225.888 354.5,223C 350.299,216.412 350.633,210.079 355.5,204C 352.924,199.771 353.09,195.605 356,191.5C 356.667,170.833 356.667,150.167 356,129.5C 349.978,127.477 348.478,123.81 351.5,118.5C 353.167,117.167 354.833,115.833 356.5,114.5C 352.216,108.202 350.382,101.202 351,93.5C 344.154,85.9923 335.654,81.4923 325.5,80C 313.167,78 300.833,78 288.5,80C 272.376,85.1528 256.043,89.4862 239.5,93C 227.914,94.4852 216.748,92.9852 206,88.5C 203.953,89.6094 201.787,90.2761 199.5,90.5C 221.693,155.244 244.193,219.911 267,284.5C 270.138,286.027 273.471,287.027 277,287.5C 279.292,286.399 280.792,287.232 281.5,290C 274.908,301.14 265.241,308.14 252.5,311C 217.296,317.404 181.963,318.07 146.5,313C 136.423,311.642 127.089,308.308 118.5,303C 115.371,297.705 111.371,293.205 106.5,289.5C 106.977,288.522 107.643,287.689 108.5,287C 112.871,286.359 117.204,285.526 121.5,284.5C 122.647,284.182 123.481,283.516 124,282.5C 145.302,218.926 166.802,155.426 188.5,92C 182.533,88.6978 178.866,83.6978 177.5,77C 181.977,63.1654 190.977,59.1654 204.5,65C 208.208,68.2761 211.041,72.1094 213,76.5C 220.129,77.6144 227.296,77.7811 234.5,77C 254.162,71.3351 273.829,65.6685 293.5,60C 305.45,57.3749 317.45,57.0416 329.5,59C 339.929,61.8654 350.263,65.0321 360.5,68.5C 361.041,66.477 360.541,64.477 359,62.5C 351.438,55.3828 348.438,46.7162 350,36.5C 356.377,24.4132 362.21,12.0799 367.5,-0.5 Z M 198.5,114.5 C 218.57,170.87 238.57,227.37 258.5,284C 238.221,282.471 217.888,281.304 197.5,280.5C 198.393,225.172 198.726,169.839 198.5,114.5 Z M 532.5,114.5 C 533.499,169.664 533.832,224.997 533.5,280.5C 515.965,280.297 498.465,280.963 481,282.5C 479.5,282.167 478,281.833 476.5,281.5C 495.57,225.957 514.236,170.291 532.5,114.5 Z M 542.5,114.5 C 562.738,170.545 582.405,226.878 601.5,283.5C 581.538,281.796 561.538,280.796 541.5,280.5C 541.817,225.167 542.151,169.833 542.5,114.5 Z M 188.5,115.5 C 189.499,170.331 189.832,225.331 189.5,280.5C 170.457,280.835 151.457,281.835 132.5,283.5C 151.173,227.49 169.84,171.49 188.5,115.5 Z"/></g>
<g><path style="opacity:0.919" fill="#000000" d="M 185.5,384.5 C 195.623,382.379 199.957,386.379 198.5,396.5C 207.506,396.334 216.506,396.5 225.5,397C 227.888,399.306 228.888,402.139 228.5,405.5C 228.333,407.167 228.167,408.833 228,410.5C 223,418.167 218,425.833 213,433.5C 211.848,436.44 210.848,439.44 210,442.5C 199.551,446.94 195.551,443.607 198,432.5C 202.707,424.251 207.541,416.084 212.5,408C 203.066,407.947 193.733,407.28 184.5,406C 183.874,405.25 183.374,404.416 183,403.5C 182.333,398.167 182.333,392.833 183,387.5C 184.045,386.627 184.878,385.627 185.5,384.5 Z"/></g>
<g><path style="opacity:0.919" fill="#000000" d="M 234.5,384.5 C 244.623,382.379 248.957,386.379 247.5,396.5C 256.506,396.334 265.506,396.5 274.5,397C 276.888,399.306 277.888,402.139 277.5,405.5C 277.333,407.167 277.167,408.833 277,410.5C 272,418.167 267,425.833 262,433.5C 260.848,436.44 259.848,439.44 259,442.5C 248.551,446.94 244.551,443.607 247,432.5C 251.707,424.251 256.541,416.084 261.5,408C 252.066,407.947 242.733,407.28 233.5,406C 232.874,405.25 232.374,404.416 232,403.5C 231.333,398.167 231.333,392.833 232,387.5C 233.045,386.627 233.878,385.627 234.5,384.5 Z"/></g>
<g><path style="opacity:0.919" fill="#000000" d="M 471.5,384.5 C 481.623,382.379 485.957,386.379 484.5,396.5C 493.506,396.334 502.506,396.5 511.5,397C 513.888,399.306 514.888,402.139 514.5,405.5C 514.333,407.167 514.167,408.833 514,410.5C 509,418.167 504,425.833 499,433.5C 497.848,436.44 496.848,439.44 496,442.5C 485.551,446.94 481.551,443.607 484,432.5C 488.707,424.251 493.541,416.084 498.5,408C 489.066,407.947 479.733,407.28 470.5,406C 469.874,405.25 469.374,404.416 469,403.5C 468.333,398.167 468.333,392.833 469,387.5C 470.045,386.627 470.878,385.627 471.5,384.5 Z"/></g>
<g><path style="opacity:0.928" fill="#000000" d="M 163.5,395.5 C 167.516,394.9 171.016,395.9 174,398.5C 174.667,406.5 174.667,414.5 174,422.5C 169.014,426.586 164.347,426.253 160,421.5C 159.333,413.833 159.333,406.167 160,398.5C 161.145,397.364 162.312,396.364 163.5,395.5 Z"/></g>
<g><path style="opacity:0.905" fill="#000000" d="M 287.5,395.5 C 294.175,395.334 300.842,395.5 307.5,396C 314.474,396.977 318.974,400.81 321,407.5C 321.373,415.186 321.373,422.852 321,430.5C 323.203,433.215 325.037,436.215 326.5,439.5C 326.124,441.383 325.124,442.883 323.5,444C 310.236,445.611 296.903,445.944 283.5,445C 278.885,443.923 277.385,441.09 279,436.5C 279.903,435.299 281.069,434.465 282.5,434C 290.5,433.667 298.5,433.333 306.5,433C 305.683,424.912 305.183,416.745 305,408.5C 304.25,407.874 303.416,407.374 302.5,407C 295.783,406.796 289.117,406.296 282.5,405.5C 280.744,403.809 280.244,401.809 281,399.5C 282.748,397.372 284.915,396.039 287.5,395.5 Z"/></g>
<g><path style="opacity:0.965" fill="#000000" d="M 373.5,395.5 C 377.516,394.9 381.016,395.9 384,398.5C 384.667,418.833 384.667,439.167 384,459.5C 379.656,463.128 374.99,463.462 370,460.5C 369.333,439.833 369.333,419.167 370,398.5C 371.145,397.364 372.312,396.364 373.5,395.5 Z"/></g>
<g><path style="opacity:0.928" fill="#000000" d="M 449.5,395.5 C 453.516,394.9 457.016,395.9 460,398.5C 460.667,406.5 460.667,414.5 460,422.5C 455.014,426.586 450.347,426.253 446,421.5C 445.333,413.833 445.333,406.167 446,398.5C 447.145,397.364 448.312,396.364 449.5,395.5 Z"/></g>
<g><path style="opacity:0.898" fill="#000000" d="M 524.5,395.5 C 527.649,395.211 530.649,395.711 533.5,397C 540.709,404.041 547.709,411.208 554.5,418.5C 555.192,417.975 555.692,417.308 556,416.5C 556.138,410.419 556.804,404.419 558,398.5C 562.076,394.966 566.409,394.633 571,397.5C 572.564,403.843 572.23,410.177 570,416.5C 567.993,420.593 564.827,423.427 560.5,425C 564.702,428.867 568.535,433.033 572,437.5C 572.184,442.488 569.684,445.155 564.5,445.5C 562.803,445.101 561.137,444.601 559.5,444C 551.302,436.137 543.469,427.97 536,419.5C 535.667,427.167 535.333,434.833 535,442.5C 530.333,446.5 525.667,446.5 521,442.5C 520.161,433.78 520.495,425.113 522,416.5C 523.5,414.333 525.333,412.5 527.5,411C 524.168,408.511 521.834,405.344 520.5,401.5C 520.866,398.744 522.2,396.744 524.5,395.5 Z"/></g>
<g><path style="opacity:0.921" fill="#000000" d="M 395.5,396.5 C 407.171,396.333 418.838,396.5 430.5,397C 431,397.5 431.5,398 432,398.5C 433.632,412.74 433.965,427.073 433,441.5C 432.348,443.723 430.848,444.89 428.5,445C 424.013,446.378 420.513,445.212 418,441.5C 417.5,430.172 417.333,418.838 417.5,407.5C 410.492,407.666 403.492,407.5 396.5,407C 391.526,403.959 391.193,400.459 395.5,396.5 Z"/></g>
<g><path style="opacity:0.86" fill="#000000" d="M -0.5,517.5 C -0.5,516.167 -0.5,514.833 -0.5,513.5C 2.6136,512.909 5.1136,511.242 7,508.5C 16.1667,488.833 25.3333,469.167 34.5,449.5C 38.3803,448.205 42.2136,448.205 46,449.5C 53.5833,470.587 61.75,491.421 70.5,512C 72.0249,513.009 73.6916,513.509 75.5,513.5C 75.5,514.833 75.5,516.167 75.5,517.5C 65.8333,517.5 56.1667,517.5 46.5,517.5C 46.5,516.167 46.5,514.833 46.5,513.5C 50.4738,513.85 53.1404,512.183 54.5,508.5C 52.959,503.879 51.6257,499.212 50.5,494.5C 41.1667,494.5 31.8333,494.5 22.5,494.5C 21.0754,498.943 19.7421,503.443 18.5,508C 19.2592,511.725 21.5925,513.558 25.5,513.5C 25.5,514.833 25.5,516.167 25.5,517.5C 16.8333,517.5 8.16667,517.5 -0.5,517.5 Z M 37.5,460.5 C 41.2597,469.871 44.9263,479.371 48.5,489C 40.8117,489.831 33.145,489.665 25.5,488.5C 29.5149,479.141 33.5149,469.807 37.5,460.5 Z"/></g>
<g><path style="opacity:0.86" fill="#000000" d="M 445.5,448.5 C 449.437,448.207 453.27,448.54 457,449.5C 464.583,470.587 472.75,491.421 481.5,512C 483.025,513.009 484.692,513.509 486.5,513.5C 486.5,514.833 486.5,516.167 486.5,517.5C 476.833,517.5 467.167,517.5 457.5,517.5C 457.5,516.167 457.5,514.833 457.5,513.5C 461.474,513.85 464.14,512.183 465.5,508.5C 463.959,503.879 462.626,499.212 461.5,494.5C 452.167,494.5 442.833,494.5 433.5,494.5C 432.075,498.943 430.742,503.443 429.5,508C 430.259,511.725 432.593,513.558 436.5,513.5C 436.5,514.833 436.5,516.167 436.5,517.5C 427.833,517.5 419.167,517.5 410.5,517.5C 410.5,516.167 410.5,514.833 410.5,513.5C 413.614,512.909 416.114,511.242 418,508.5C 427.452,488.598 436.619,468.598 445.5,448.5 Z M 448.5,460.5 C 452.26,469.871 455.926,479.371 459.5,489C 451.812,489.831 444.145,489.665 436.5,488.5C 440.515,479.141 444.515,469.807 448.5,460.5 Z"/></g>
<g><path style="opacity:0.877" fill="#000000" d="M 535.5,449.5 C 544.167,449.5 552.833,449.5 561.5,449.5C 561.5,450.5 561.5,451.5 561.5,452.5C 558.439,452.444 556.272,453.778 555,456.5C 554.5,475.164 554.333,493.83 554.5,512.5C 561.881,512.686 569.214,512.186 576.5,511C 577.931,510.535 579.097,509.701 580,508.5C 581.699,505.065 583.199,501.565 584.5,498C 587.099,497.231 589.599,497.398 592,498.5C 596.01,494.491 600.843,491.991 606.5,491C 612.445,489.838 618.445,489.338 624.5,489.5C 624.77,473.887 617.937,469.554 604,476.5C 603.293,478.081 602.46,479.581 601.5,481C 598.518,481.498 595.518,481.665 592.5,481.5C 592.187,478.753 592.52,476.086 593.5,473.5C 605.92,468.051 618.587,467.218 631.5,471C 633.317,472.8 634.484,474.966 635,477.5C 635.333,487.833 635.667,498.167 636,508.5C 636.727,511.955 638.893,513.621 642.5,513.5C 642.5,514.833 642.5,516.167 642.5,517.5C 636.833,517.5 631.167,517.5 625.5,517.5C 625.808,515.076 625.474,512.743 624.5,510.5C 615.795,517.859 606.128,519.693 595.5,516C 594,514.5 592.5,513 591,511.5C 590.505,513.473 590.338,515.473 590.5,517.5C 572.167,517.5 553.833,517.5 535.5,517.5C 535.5,516.167 535.5,514.833 535.5,513.5C 539.107,513.621 541.273,511.955 542,508.5C 542.667,491.5 542.667,474.5 542,457.5C 541.273,454.045 539.107,452.379 535.5,452.5C 535.5,451.5 535.5,450.5 535.5,449.5 Z M 613.5,494.5 C 617.167,494.5 620.833,494.5 624.5,494.5C 624.513,507.184 618.18,512.351 605.5,510C 600.491,506.564 600.157,502.564 604.5,498C 607.571,496.704 610.571,495.538 613.5,494.5 Z"/></g>
<g><path style="opacity:0.896" fill="#000000" d="M 79.5,457.5 C 82.8333,457.5 86.1667,457.5 89.5,457.5C 89.5,461.5 89.5,465.5 89.5,469.5C 95.5092,469.666 101.509,469.499 107.5,469C 110.32,465.708 111.653,461.875 111.5,457.5C 114.833,457.5 118.167,457.5 121.5,457.5C 121.5,461.5 121.5,465.5 121.5,469.5C 127.833,469.5 134.167,469.5 140.5,469.5C 140.5,471.5 140.5,473.5 140.5,475.5C 134.167,475.5 127.833,475.5 121.5,475.5C 121.334,484.839 121.5,494.173 122,503.5C 122.738,508.706 125.738,511.039 131,510.5C 133.855,510.554 136.522,509.888 139,508.5C 140.434,508.93 141.601,509.764 142.5,511C 133.901,518.436 124.568,519.769 114.5,515C 112.959,513.421 111.792,511.587 111,509.5C 110.5,498.172 110.333,486.838 110.5,475.5C 103.5,475.5 96.5,475.5 89.5,475.5C 89.3335,484.839 89.5002,494.173 90,503.5C 90.7379,508.706 93.7379,511.039 99,510.5C 101.855,510.554 104.522,509.888 107,508.5C 108.434,508.93 109.601,509.764 110.5,511C 101.901,518.436 92.5675,519.769 82.5,515C 80.9588,513.421 79.7922,511.587 79,509.5C 78.5001,498.172 78.3335,486.838 78.5,475.5C 75.5,475.5 72.5,475.5 69.5,475.5C 69.5,474.167 69.5,472.833 69.5,471.5C 76.7084,469.79 80.0417,465.124 79.5,457.5 Z"/></g>
<g><path style="opacity:0.891" fill="#000000" d="M 490.5,457.5 C 493.833,457.5 497.167,457.5 500.5,457.5C 500.5,461.5 500.5,465.5 500.5,469.5C 506.833,469.5 513.167,469.5 519.5,469.5C 519.5,471.5 519.5,473.5 519.5,475.5C 513.167,475.5 506.833,475.5 500.5,475.5C 500.334,484.839 500.5,494.173 501,503.5C 501.738,508.706 504.738,511.039 510,510.5C 512.855,510.554 515.522,509.888 518,508.5C 519.434,508.93 520.601,509.764 521.5,511C 512.901,518.436 503.568,519.769 493.5,515C 491.959,513.421 490.792,511.587 490,509.5C 489.5,498.172 489.333,486.838 489.5,475.5C 486.5,475.5 483.5,475.5 480.5,475.5C 480.5,474.167 480.5,472.833 480.5,471.5C 487.708,469.79 491.042,465.124 490.5,457.5 Z"/></g>
<g><path style="opacity:0.88" fill="#000000" d="M 156.5,468.5 C 186.303,465.145 197.136,477.811 189,506.5C 182.782,514.775 174.449,518.775 164,518.5C 142.142,516.181 134.142,504.181 140,482.5C 143.585,475.403 149.085,470.736 156.5,468.5 Z M 159.5,473.5 C 173.67,472.437 180.336,479.103 179.5,493.5C 179.285,509.919 171.618,515.419 156.5,510C 149.622,500.039 148.788,489.539 154,478.5C 155.73,476.598 157.563,474.931 159.5,473.5 Z"/></g>
<g><path style="opacity:0.878" fill="#000000" d="M 223.5,468.5 C 233.165,468.878 242.831,469.211 252.5,469.5C 252.338,471.527 252.505,473.527 253,475.5C 260.312,468.955 268.812,466.788 278.5,469C 283.099,470.598 285.932,473.765 287,478.5C 287.333,488.833 287.667,499.167 288,509.5C 289.026,512.693 291.192,514.026 294.5,513.5C 294.5,514.833 294.5,516.167 294.5,517.5C 286.167,517.5 277.833,517.5 269.5,517.5C 269.5,516.167 269.5,514.833 269.5,513.5C 273.696,513.658 275.863,511.658 276,507.5C 276.667,500.5 276.667,493.5 276,486.5C 276.44,479.277 273.107,475.611 266,475.5C 260.089,475.621 255.755,478.288 253,483.5C 252.333,492.167 252.333,500.833 253,509.5C 254.272,512.222 256.439,513.556 259.5,513.5C 259.5,514.833 259.5,516.167 259.5,517.5C 251.167,517.5 242.833,517.5 234.5,517.5C 234.5,516.167 234.5,514.833 234.5,513.5C 238.107,513.621 240.273,511.955 241,508.5C 241.667,497.833 241.667,487.167 241,476.5C 240.385,474.884 239.385,473.551 238,472.5C 237.502,475.482 237.335,478.482 237.5,481.5C 232.775,482.476 229.108,480.976 226.5,477C 220.731,475.632 216.231,477.466 213,482.5C 211.391,491.398 211.058,500.398 212,509.5C 213.539,512.521 216.039,513.854 219.5,513.5C 219.5,514.833 219.5,516.167 219.5,517.5C 210.833,517.5 202.167,517.5 193.5,517.5C 193.5,516.167 193.5,514.833 193.5,513.5C 195.582,513.528 197.416,512.861 199,511.5C 200.103,505.244 200.603,498.911 200.5,492.5C 200.333,487.167 200.167,481.833 200,476.5C 198.682,473.059 196.182,471.725 192.5,472.5C 192.5,471.5 192.5,470.5 192.5,469.5C 198.833,469.5 205.167,469.5 211.5,469.5C 211.337,471.857 211.503,474.19 212,476.5C 215.482,473.161 219.315,470.494 223.5,468.5 Z"/></g>
<g><path style="opacity:0.86" fill="#000000" d="M 313.5,468.5 C 333.544,464.486 344.211,472.486 345.5,492.5C 332.851,493.499 320.184,493.832 307.5,493.5C 307.865,507.878 315.198,513.378 329.5,510C 332.987,508.755 336.321,507.255 339.5,505.5C 341.609,505.775 342.942,506.942 343.5,509C 337.205,514.88 329.705,518.047 321,518.5C 312.992,518.388 305.992,515.721 300,510.5C 295.251,501.651 294.251,492.317 297,482.5C 300.585,475.403 306.085,470.736 313.5,468.5 Z M 316.5,473.5 C 327.596,472.261 332.929,477.261 332.5,488.5C 324.167,488.5 315.833,488.5 307.5,488.5C 307.736,481.673 310.736,476.673 316.5,473.5 Z"/></g>
<g><path style="opacity:0.876" fill="#000000" d="M 356.5,537.5 C 351.5,537.5 346.5,537.5 341.5,537.5C 341.5,533.833 341.5,530.167 341.5,526.5C 344.681,526.002 347.347,526.835 349.5,529C 351.833,529.667 354.167,529.667 356.5,529C 360.669,525.837 363.669,521.837 365.5,517C 359.471,503.108 353.304,489.274 347,475.5C 345.736,473.393 343.903,472.393 341.5,472.5C 341.5,471.5 341.5,470.5 341.5,469.5C 349.833,469.5 358.167,469.5 366.5,469.5C 366.5,470.5 366.5,471.5 366.5,472.5C 363.136,471.873 361.136,473.206 360.5,476.5C 363.842,486.36 367.676,496.026 372,505.5C 376.588,497.324 380.922,488.991 385,480.5C 386.822,475.171 384.989,472.504 379.5,472.5C 379.5,471.5 379.5,470.5 379.5,469.5C 387.5,469.5 395.5,469.5 403.5,469.5C 403.5,470.5 403.5,471.5 403.5,472.5C 399.474,472.677 396.641,474.677 395,478.5C 386.068,495.754 376.735,512.754 367,529.5C 364.025,533.048 360.525,535.714 356.5,537.5 Z"/></g>
<g><path style="opacity:0.871" fill="#000000" d="M 730.5,469.5 C 730.5,470.5 730.5,471.5 730.5,472.5C 727.358,472.799 725.191,474.466 724,477.5C 717.833,490.5 711.667,503.5 705.5,516.5C 702.232,517.487 698.898,517.82 695.5,517.5C 692.024,505.57 687.857,493.903 683,482.5C 678.069,493.792 673.236,505.126 668.5,516.5C 665.232,517.487 661.898,517.82 658.5,517.5C 653.964,504.755 649.131,492.088 644,479.5C 642.882,475.544 640.382,473.211 636.5,472.5C 636.5,471.5 636.5,470.5 636.5,469.5C 644.833,469.5 653.167,469.5 661.5,469.5C 661.5,470.5 661.5,471.5 661.5,472.5C 657.901,471.938 655.901,473.438 655.5,477C 658.799,486.563 662.299,496.063 666,505.5C 670.736,493.793 675.569,482.126 680.5,470.5C 683.833,469.167 687.167,469.167 690.5,470.5C 694.765,482.129 698.932,493.795 703,505.5C 706.667,497.167 710.333,488.833 714,480.5C 715.822,475.171 713.989,472.504 708.5,472.5C 708.5,471.5 708.5,470.5 708.5,469.5C 715.833,469.5 723.167,469.5 730.5,469.5 Z"/></g>
</svg>
